<svg width="16" height="16" viewBox="0 0 16 16" fill="none" xmlns="http://www.w3.org/2000/svg">
<path fill-rule="evenodd" clip-rule="evenodd" d="M10.345 0.958172C11.1228 0.858708 11.9098 1.17678 12.7094 1.92915L12.7103 1.93002C13.5126 2.68875 13.8778 3.45841 13.823 4.24233C13.7701 4.99983 13.3309 5.64097 12.8302 6.17001M12.8302 6.17001L7.35959 11.9605C7.20536 12.1284 6.9977 12.2706 6.80084 12.3759C6.60144 12.4825 6.3708 12.5738 6.15427 12.6122L6.15094 12.6128L4.00504 12.9794C3.48467 13.0691 2.98567 12.939 2.6302 12.6019C2.27523 12.2653 2.11837 11.7744 2.17648 11.2514L2.17665 11.2499L2.42439 9.08054C2.45316 8.86474 2.5333 8.63122 2.62778 8.42864C2.72191 8.22679 2.85034 8.01276 3.00233 7.85096L3.00331 7.84993L8.47664 2.05659C8.97766 1.52734 9.59336 1.05429 10.345 0.958172M9.20319 2.7437C9.20311 2.74379 9.20328 2.74362 9.20319 2.7437L3.73118 8.53564C3.73107 8.53576 3.73129 8.53552 3.73118 8.53564C3.67653 8.59395 3.60146 8.70678 3.53407 8.85129C3.4679 8.99319 3.42815 9.12446 3.41623 9.20884L3.17036 11.3618C3.17034 11.3621 3.17031 11.3623 3.17029 11.3625C3.14195 11.6192 3.2217 11.7847 3.31831 11.8763C3.41451 11.9676 3.58218 12.0375 3.83514 11.9939L3.8359 11.9938L5.98064 11.6274C6.06416 11.6123 6.19284 11.567 6.32934 11.494C6.46773 11.42 6.57183 11.3402 6.62394 11.2831L6.62992 11.2765L12.1033 5.48326C12.5491 5.01236 12.7968 4.58326 12.8255 4.1726C12.8523 3.78829 12.6943 3.29146 12.0237 2.6571C11.3569 2.02977 10.8539 1.90123 10.4718 1.95009C10.0636 2.0023 9.64874 2.27312 9.20319 2.7437Z" fill="black"/>
<path fill-rule="evenodd" clip-rule="evenodd" d="M7.84978 2.87261C8.12263 2.8301 8.37828 3.01683 8.42079 3.28968C8.67221 4.90342 9.98189 6.1385 11.6102 6.3025C11.8849 6.33017 12.0852 6.57534 12.0576 6.85009C12.0299 7.12484 11.7847 7.32514 11.51 7.29746C9.43161 7.08813 7.75463 5.50987 7.43271 3.44362C7.3902 3.17077 7.57693 2.91512 7.84978 2.87261Z" fill="black"/>
<path fill-rule="evenodd" clip-rule="evenodd" d="M1.50009 14.6666C1.50009 14.3905 1.72395 14.1666 2.00009 14.1666H14.0001C14.2762 14.1666 14.5001 14.3905 14.5001 14.6666C14.5001 14.9428 14.2762 15.1666 14.0001 15.1666H2.00009C1.72395 15.1666 1.50009 14.9428 1.50009 14.6666Z" fill="black"/>
</svg>
